<svg xmlns="http://www.w3.org/2000/svg" viewBox="0 0 320 320" shape-rendering="crispEdges" role="img" aria-label="Pixel dinosaur avatar">
  <rect width="320" height="320" fill="#0f172a"/>

  <!-- body -->
  <rect x="88" y="132" width="144" height="96" fill="#22c55e"/>
  <rect x="72" y="148" width="16" height="64" fill="#22c55e"/>
  <rect x="232" y="148" width="16" height="64" fill="#22c55e"/>

  <!-- head -->
  <rect x="184" y="84" width="88" height="80" fill="#22c55e"/>
  <rect x="272" y="100" width="16" height="48" fill="#22c55e"/>

  <!-- tail -->
  <rect x="56" y="164" width="16" height="32" fill="#16a34a"/>
  <rect x="40" y="172" width="16" height="16" fill="#16a34a"/>

  <!-- belly -->
  <rect x="120" y="156" width="72" height="64" fill="#86efac"/>

  <!-- spikes -->
  <rect x="104" y="116" width="16" height="16" fill="#15803d"/>
  <rect x="136" y="108" width="16" height="24" fill="#15803d"/>
  <rect x="168" y="116" width="16" height="16" fill="#15803d"/>

  <!-- eye -->
  <rect x="224" y="108" width="16" height="16" fill="#0b1220"/>
  <rect x="232" y="108" width="8" height="8" fill="#ffffff"/>

  <!-- mouth -->
  <rect x="216" y="136" width="40" height="8" fill="#14532d"/>

  <!-- arm -->
  <rect x="184" y="172" width="16" height="24" fill="#15803d"/>

  <!-- legs -->
  <rect x="128" y="228" width="24" height="40" fill="#16a34a"/>
  <rect x="176" y="228" width="24" height="40" fill="#16a34a"/>

  <!-- badge -->
  <rect x="88" y="272" width="144" height="24" fill="#020617"/>
  <text x="160" y="289" text-anchor="middle" font-family="monospace" font-size="14" fill="#bbf7d0">TRUEMAN</text>
</svg>
